<svg width="48" height="48" viewBox="0 0 48 48" fill="none" xmlns="http://www.w3.org/2000/svg">
<path d="M21.1688 43.8938L20.9344 43.6781L4.50937 28.425C1.63125 25.7531 0 22.0031 0 18.075V17.7656C0 11.1656 4.6875 5.50314 11.175 4.26564C14.8687 3.55314 18.6469 4.40626 21.6562 6.52501C22.5 7.12501 23.2875 7.81876 24 8.61564C24.3937 8.16564 24.8156 7.75314 25.2656 7.36876C25.6125 7.06876 25.9688 6.78751 26.3438 6.52501C29.3531 4.40626 33.1312 3.55314 36.825 4.25626C43.3125 5.49376 48 11.1656 48 17.7656V18.075C48 22.0031 46.3687 25.7531 43.4906 28.425L27.0656 43.6781L26.8313 43.8938C26.0625 44.6063 25.05 45.0094 24 45.0094C22.95 45.0094 21.9375 44.6156 21.1688 43.8938ZM22.4156 13.5938C22.3781 13.5656 22.35 13.5281 22.3219 13.4906L20.6531 11.6156L20.6437 11.6063C18.4781 9.17814 15.2062 8.07189 12.0187 8.68126C7.65 9.51564 4.5 13.3219 4.5 17.7656V18.075C4.5 20.7469 5.61563 23.3063 7.575 25.125L24 40.3781L40.425 25.125C42.3844 23.3063 43.5 20.7469 43.5 18.075V17.7656C43.5 13.3313 40.35 9.51564 35.9906 8.68126C32.8031 8.07189 29.5219 9.18751 27.3656 11.6063C27.3656 11.6063 27.3656 11.6063 27.3562 11.6156C27.3469 11.625 27.3563 11.6156 27.3469 11.625L25.6781 13.5C25.65 13.5375 25.6125 13.5656 25.5844 13.6031C25.1625 14.025 24.5906 14.2594 24 14.2594C23.4094 14.2594 22.8375 14.025 22.4156 13.6031V13.5938Z" fill="#C02718"/>
<path d="M15.1875 17.8281H21.8594V19.4688H16.9688L16.7812 22.2188C17.0781 22.1042 17.5104 22.0469 18.0781 22.0469C20.8906 22.0469 22.2969 23.1927 22.2969 25.4844C22.2969 27.8802 20.8385 29.0781 17.9219 29.0781C16.8802 29.0781 15.8385 28.9219 14.7969 28.6094V26.8906C15.8385 27.2552 16.9062 27.4375 18 27.4375C19.4844 27.4375 20.2266 26.7865 20.2266 25.4844C20.2266 24.2865 19.5104 23.6875 18.0781 23.6875C16.9062 23.6875 15.8125 23.8177 14.7969 24.0781L15.1875 17.8281ZM25.7344 23.3828C25.7344 25.9818 26.6797 27.2812 28.5703 27.2812C30.4036 27.2812 31.3203 25.9818 31.3203 23.3828C31.3203 20.8255 30.4036 19.5469 28.5703 19.5469C26.6797 19.5469 25.7344 20.8255 25.7344 23.3828ZM23.5859 23.4297C23.5859 19.6432 25.2474 17.75 28.5703 17.75C31.8359 17.75 33.4688 19.6432 33.4688 23.4297C33.4688 27.1953 31.8359 29.0781 28.5703 29.0781C25.2474 29.0781 23.5859 27.1953 23.5859 23.4297Z" fill="black" fill-opacity="0.5"/>
</svg>
