<svg width="45" height="40" viewBox="0 0 45 40" fill="none" xmlns="http://www.w3.org/2000/svg">
<path d="M40 6.25C40.6875 6.25 41.25 6.8125 41.25 7.5V32.5C41.25 33.1875 40.6875 33.75 40 33.75H5C4.3125 33.75 3.75 33.1875 3.75 32.5V7.5C3.75 6.8125 4.3125 6.25 5 6.25H40ZM5 2.5C2.24219 2.5 0 4.74219 0 7.5V32.5C0 35.2578 2.24219 37.5 5 37.5H40C42.7578 37.5 45 35.2578 45 32.5V7.5C45 4.74219 42.7578 2.5 40 2.5H5ZM16.25 20C17.5761 20 18.8479 19.4732 19.7855 18.5355C20.7232 17.5979 21.25 16.3261 21.25 15C21.25 13.6739 20.7232 12.4021 19.7855 11.4645C18.8479 10.5268 17.5761 10 16.25 10C14.9239 10 13.6521 10.5268 12.7145 11.4645C11.7768 12.4021 11.25 13.6739 11.25 15C11.25 16.3261 11.7768 17.5979 12.7145 18.5355C13.6521 19.4732 14.9239 20 16.25 20ZM13.75 22.5C10.2969 22.5 7.5 25.2969 7.5 28.75C7.5 29.4375 8.0625 30 8.75 30H23.75C24.4375 30 25 29.4375 25 28.75C25 25.2969 22.2031 22.5 18.75 22.5H13.75ZM29.375 11.25C28.3359 11.25 27.5 12.0859 27.5 13.125C27.5 14.1641 28.3359 15 29.375 15H35.625C36.6641 15 37.5 14.1641 37.5 13.125C37.5 12.0859 36.6641 11.25 35.625 11.25H29.375ZM29.375 18.75C28.3359 18.75 27.5 19.5859 27.5 20.625C27.5 21.6641 28.3359 22.5 29.375 22.5H35.625C36.6641 22.5 37.5 21.6641 37.5 20.625C37.5 19.5859 36.6641 18.75 35.625 18.75H29.375Z" fill="#003D25"/>
</svg>
